<?xml version="1.0" encoding="utf-8"?>
<svg width="134.5" height="150.5" viewBox="0 0 134.5 150.5" xmlns="http://www.w3.org/2000/svg">
  <g>
    <path d="M 45.0959,138.578 C 30.9419,130.506 16.906,122.496 2.86183,114.5 0.950272,113.411 -0.00242615,111.873 0,109.623 0.0247498,86.6605 0.0169678,63.6977 0.00527954,40.7348 0.00415039,38.5051 1.02734,36.9364 2.91634,35.856 20.0058,26.082 37.0961,16.3096 54.183,6.53127 57.3897,4.6962 60.6114,2.88464 63.7714,0.971863 c 2.2164,-1.34166 4.2893,-1.255615 6.501,0.020111 C 90.2158,12.4958 110.161,23.997 130.152,35.4183 c 2.675,1.5287 3.896,3.4914 3.847,6.5851 -0.123,7.5716 -0.047,15.1464 -0.059,22.7199 -0.004,3.0123 -1.839,5.0448 -4.525,5.0388 -2.665,-0.0061 -4.35,-1.8998 -4.363,-4.9498 -0.016,-3.443 -0.004,-6.886 -0.004,-10.7368 -1.636,0.903 -2.995,1.6202 -4.321,2.3936 -1.828,1.0655 -4.308,1.7749 -5.252,3.3757 -0.939,1.5935 -0.381,4.1002 -0.384,6.2067 -0.021,14.9651 -0.017,29.9303 -0.02,44.8955 -0.001,0.663 0,1.326 0,2.358 0.776,-0.379 1.346,-0.618 1.876,-0.924 2.257,-1.302 4.475,-2.674 6.764,-3.914 1.057,-0.572 1.407,-1.293 1.38,-2.468 -0.07,-3.027 -0.022,-6.0581 -0.004,-9.0874 0.017,-2.9563 1.753,-4.8495 4.448,-4.8786 2.548,-0.0275 4.383,1.903 4.404,4.739 0.031,4.301 -0.013,8.603 0.008,12.905 0.009,2.08 -0.884,3.59 -2.678,4.612 -5.949,3.387 -11.88,6.809 -17.849,10.163 -3.617,2.034 -7.178,-0.011 -7.183,-4.136 -0.029,-20.7821 -0.011,-41.5638 -0.04,-62.3455 -0.004,-2.5092 1.075,-4.2531 3.227,-5.4628 4.751,-2.672 9.488,-5.3708 14.217,-8.0825 0.553,-0.317 1.02,-0.7835 1.526,-1.1807 -0.495,-0.4736 -0.918,-1.0715 -1.495,-1.4027 C 106.819,32.1656 89.9517,22.5156 73.0854,12.863 71.9307,12.2021 70.651,11.6972 69.6367,10.8671 67.8104,9.3725 66.3063,9.64229 64.3227,10.7884 46.3815,21.1547 28.3763,31.4105 10.368,41.6606 9.23555,42.3051 8.7686,43.0008 8.7717,44.3502 8.81874,64.8288 8.82138,85.3076 8.7668,105.786 c -0.0038,1.426 0.48039,2.156 1.6688,2.835 17.4653,9.978 34.8947,20.02 52.3719,29.977 1.5167,0.864 2.1544,1.792 2.035,3.554 -0.1675,2.471 -0.0423,4.962 -0.0423,7.848 -6.6869,-3.876 -13.1378,-7.616 -19.7043,-11.422 z" fill="#0E62CC" /> 
    <path d="m 83.48,97.3812 c 2.4863,-7.7946 4.9198,-15.4549 7.5219,-23.6459 -3.1996,1.803 -5.9118,3.3173 -8.6096,4.8571 -1.4656,0.8365 -2.89719,1.7336 -4.36121,2.5729 -2.51489,1.4419 -5.19463,0.8767 -6.4779,-1.3417 -1.316243,-2.2753 -0.57927,-4.8791 1.95729,-6.3595 7.49972,-4.37707 15.02652,-8.70703 22.55832,-13.027675 1.7093,-0.98053 3.4697,-1.034347 5.0754,0.245468 1.7148,1.366807 2.1116,3.185757 1.4707,5.236867 -2.4965,7.98864 -5.004,15.97384 -7.523,23.95534 -4.3088,13.6522 -8.6299,27.3006 -12.9421,40.9517 -0.1416,0.4481 -0.2429,0.909 -0.4806,1.8098 0.9725,-0.5146 1.6306,-0.8327 2.2599,-1.2008 3.7996,-2.2224 7.5933,-4.4552 11.3878,-6.6865 2.7789,-1.6342 5.2945,-1.2619 6.6584,0.989 1.3293,2.1936 0.4224,5.0881 -2.2037,6.6426 -9.7043,5.7445 -19.431,11.4505 -29.153031,17.1644 -0.138672,0.0815 -0.325851,0.079 -0.714569,0.1657 0.232773,-4.7141 -0.241669,-9.2828 1.29434,-13.8782 4.24939,-12.7132 8.17513,-25.5365 12.28166,-38.4506 z" fill="#0E62CC" />  
  </g>
</svg>
